<svg xmlns="http://www.w3.org/2000/svg" width="128" height="128" viewBox="0 0 32 32"><rect width="100%" height="100%" fill="#444"/><g fill="#555"><path d="M0 0h32 V4H26 V2H24 V2H20 V3H16 V2H12 V2H8 V3H4 V4H0 Z"/><path d="M0 16h32 V18H30 V19H24 V20H20 V18H16 V19H14 V18H12 V19H8 V20H4 V18H0 Z"/></g><g fill="#333"><path d="M0 16h32 V13H30 V12H28 V14H24 V13H22 V12H20 V13H18 V12H16 V14H12 V13H8 V12H4 V13H0 Z"/><path d="M0 32h32 V30H24 V28H20 V29H16 V28H14 V30H8 V28H0 Z"/></g><g fill-opacity="0" stroke="#111"><rect width="100%" height="50%"/><rect width="100%" height="50%" x="-50%" y="50%"/><rect width="100%" height="50%" x="50%" y="50%"/></g></svg>