<svg width="128" height="128" viewBox="0 0 32 32" xmlns="http://www.w3.org/2000/svg">
    <rect  width="100%" height="100%" fill="#444"/>
    <g fill="#555">
      <!-- <path d="M0 0 L32 0 L32 4 L26 4 L26 2 L24 2 L24 3 L20 3 L20 2 L16 2 L16 4 L12 4 L12 2 L8 2 L8 3 L4 3 L4 4 L0 4 Z"/> -->
      <!-- <path d="M0 16 L32 16 L32 18 L30 18 L30 19 L28 19 L24 19 L24 20 L20 20 L20 18 L16 18 L16 19 L14 19 L14 18 L12 18 L12 19 L8 19 L8 20 L4 20 L4 18 L0 18 Z"/> -->
      <path d="M0 0h32 V4H26 V2H24 V2H20 V3H16 V2H12 V2H8 V3H4 V4H0 Z"/>
      <path d="M0 16h32 V18H30 V19H24 V20H20 V18H16 V19H14 V18H12 V19H8 V20H4 V18H0 Z"/>
    </g>
    <g fill="#333">
      <!-- <path d="M0 16 L32 16 L32 14 L30 14 L30 12 L28 12 L24 12 L24 14 L22 14 L22 13 L20 13 L20 12 L18 12 L18 13 L16 13 L16 12 L12 12 L12 14 L8 14 L8 12 L4 12 L4 13 L0 13 Z"/> -->
      <!-- <path d="M0 32 L32 32 L32 30 L24 30 L24 28 L20 28 L20 29 L16 29 L16 28 L14 28 L14 30 L8 30 L8 28 L 0 28 Z"/> -->
      <path d="M0 16h32 V13H30 V12H28 V14H24 V13H22 V12H20 V13H18 V12H16 V14H12 V13H8 V12H4 V13H0 Z"/>
      <path d="M0 32h32 V30H24 V28H20 V29H16 V28H14 V30H8 V28H0 Z"/>
    </g>
    <g fill-opacity="0" stroke="#111">
      <rect width="100%" height="50%"/>
      <rect x="-50%" y="50%" width="100%" height="50%"/>
      <rect x="50%" y="50%" width="100%" height="50%"/>
    </g>
</svg>