<svg xmlns="http://www.w3.org/2000/svg" width="512" height="512" viewBox="0 0 32 32"><defs><mask id="mask"><rect width="100%" height="100%" fill="#fff"/><path d="M14 18 C14 12 14 12 8 12 Z"/><path d="M18 18 C18 12 18 12 24 12 Z"/><path d="M16 24 L14 28 L16 27 L18 28 Z"/></mask></defs><circle cx="16" cy="16" r="15" fill="#777" stroke="#b00" stroke-width="2"/><g mask="url(#mask)"><path fill="#a00" d="M0 0 C0 0 2 4 4 6 C0 16 0 16 8 24 C8 24 8 20 14 32 L16 30 L16 4 C16 4 12 2 8 2 C4 2 0 0 0 0"/><path fill="#c00" d="M0 0 C0 0 2 4 4 6 C0 16 0 16 8 24 C8 24 8 20 14 32 L16 30 L16 4 C16 4 12 2 8 2 C4 2 0 0 0 0" transform="translate(32 0) scale(-1 1)"/></g></svg>