<svg xmlns="http://www.w3.org/2000/svg" width="512" height="512" viewBox="0 0 32 32"><defs><mask id="mask"><rect width="100%" height="100%" fill="#fff"/><path d="M14 20 C10 18 8 16 8 12 C8 14 14 14 14 20"/><path d="M18 20 C22 18 24 16 24 12 C24 14 18 14 18 20"/><path d="M15 22 L14 26 L15 25 Z"/><path d="M17 22 L18 26 L17 25 Z"/></mask></defs><circle cx="16" cy="16" r="15" fill="#777" stroke="#b00" stroke-width="2"/><g mask="url(#mask)"><path fill="#504" d="M4 0 C2 4 2 6 6 10 C4 4 2 10 2 14 C2 18 3 18 4 20 S0 24 0 26 C2 24 4 24 5 26 S4 30 4 30 C6 28 8 31 8 31 S10 28 16 32 L16 2 C15 4 15 6 14 6 C14 6 14 6 10 5 S8 6 8 6 C3 4 4 0 4 0 Z"/><path fill="#706" d="M4 0 C2 4 2 6 6 10 C4 4 2 10 2 14 C2 18 3 18 4 20 S0 24 0 26 C2 24 4 24 5 26 S4 30 4 30 C6 28 8 31 8 31 S10 28 16 32 L16 2 C15 4 15 6 14 6 C14 6 14 6 10 5 S8 6 8 6 C3 4 4 0 4 0 Z" transform="translate(32 0) scale(-1 1)"/></g></svg>