<svg xmlns="http://www.w3.org/2000/svg" width="512" height="512" viewBox="0 0 32 32"><defs><mask id="face-mask"><rect width="100%" height="100%" fill="#fff"/><path d="M4 14 L16 15 L28 14 L28 16 L16 18 L4 16 Z"/><g transform="translate(32, 0) scale(-1 1)"><circle cx="14" cy="22" r=".5"/><circle cx="11" cy="21.5" r=".5"/><circle cx="8" cy="21" r=".5"/><circle cx="5" cy="20.5" r=".5"/><circle cx="14" cy="25" r=".5"/><circle cx="11.5" cy="24.5" r=".5"/><circle cx="9" cy="24" r=".5"/><circle cx="6.5" cy="23.5" r=".5"/><circle cx="14" cy="28" r=".5"/><circle cx="12" cy="27.5" r=".5"/><circle cx="10" cy="27" r=".5"/><circle cx="8" cy="26.5" r=".5"/></g><circle cx="14" cy="22" r=".5"/><circle cx="11" cy="21.5" r=".5"/><circle cx="8" cy="21" r=".5"/><circle cx="5" cy="20.5" r=".5"/><circle cx="14" cy="25" r=".5"/><circle cx="11.5" cy="24.5" r=".5"/><circle cx="9" cy="24" r=".5"/><circle cx="6.5" cy="23.5" r=".5"/><circle cx="14" cy="28" r=".5"/><circle cx="12" cy="27.5" r=".5"/><circle cx="10" cy="27" r=".5"/><circle cx="8" cy="26.5" r=".5"/></mask></defs><circle cx="16" cy="16" r="15" fill="#777" stroke="#0bb" stroke-width="2"/><g mask="url(#face-mask)"><path fill="#0cc" d="M16 0 C12 2 4 8 2 12 L2 20 C2 24 8 32 12 32 L20 32 C24 32 30 24 30 20 L30 12 C28 8 20 2 16 0"/><path fill="#0ee" d="M16 0 L16 32 L20 32 C24 32 30 24 30 20 L30 12 C28 8 20 2 16 0"/></g></svg>